<svg width="18" height="13" viewBox="0 0 18 13" xmlns="http://www.w3.org/2000/svg">
  <path
    d="M17.7851 1.67391L6.78513 12.6739C6.72128 12.7378 6.64546 12.7885 6.56199 12.8231C6.47853 12.8577 6.38907 12.8755 6.29872 12.8755C6.20837 12.8755 6.11891 12.8577 6.03545 12.8231C5.95199 12.7885 5.87617 12.7378 5.81232 12.6739L0.999816 7.86141C0.870813 7.7324 0.79834 7.55744 0.79834 7.375C0.79834 7.19256 0.870813 7.0176 0.999816 6.88859C1.12882 6.75959 1.30378 6.68712 1.48622 6.68712C1.66866 6.68712 1.84363 6.75959 1.97263 6.88859L6.29872 11.2155L16.8123 0.701094C16.9413 0.572091 17.1163 0.499619 17.2987 0.499619C17.4812 0.499619 17.6561 0.572091 17.7851 0.701094C17.9141 0.830097 17.9866 1.00506 17.9866 1.1875C17.9866 1.36994 17.9141 1.5449 17.7851 1.67391Z"
    fill="#9E78CF" />
</svg>